<?xml version="1.0" encoding="utf-8"?>
<!-- Generator: Adobe Illustrator 16.0.0, SVG Export Plug-In . SVG Version: 6.00 Build 0)  -->
<!DOCTYPE svg PUBLIC "-//W3C//DTD SVG 1.1//EN" "http://www.w3.org/Graphics/SVG/1.1/DTD/svg11.dtd">
<svg version="1.1" id="Layer_1" xmlns="http://www.w3.org/2000/svg" xmlns:xlink="http://www.w3.org/1999/xlink" x="0px" y="0px"
	 width="1920px" height="234px" viewBox="0 0 1920 234" enable-background="new 0 0 1920 234" xml:space="preserve">
<g transform="translate(0.000000,234.000000) scale(0.100000,-0.100000)">
	<path fill="#FFFFFF" d="M7611.669,2078.335c-259.722-67.896-343.647-87.563-640-366.675
		c-142.241-133.623-210.186-98.242-280.234-98.242c-60.342,0-136.851,42.031-258.633,141.162
		c-203.667,165.957-243.545,195.059-324.365,233.848l-80.825,39.873h-156.26c-143.325,0-162.72-2.153-236.006-29.097
		c-94.834-34.482-219.834-107.764-321.138-189.663c-102.378-81.904-137.935-103.457-226.304-134.697
		c-303.901-109.922-693.999-85.137-1076.562,67.891c-160.571,63.574-229.546,74.351-324.375,49.565
		c-106.685-26.943-182.119-71.128-404.121-238.159c-285.576-214.453-378.247-260.801-579.77-290.957
		c-187.505-29.102-364.238-14.023-564.683,47.402c-139.014,43.125-264.023,46.348-345.928,7.539
		c-56.035-25.859-131.475-99.121-161.646-156.25c-23.711-46.348-89.443-91.602-175.654-121.777
		c-64.658-22.617-91.597-24.785-255.405-24.785c-168.11,1.074-198.281,4.316-373.94,40.957
		c-165.957,34.473-211.216,39.863-335.146,39.863c-228.462,0-418.13-40.938-648.745-140.078
		C-334.8,880.605-511.533,777.168-695.815,641.367l-48.491-35.547l-1.079-406.289v-407.344h10345.39h10345.385v565.762v565.762
		l-115.313,116.387c-207.969,209.062-399.805,318.984-636.875,364.238c-106.699,20.488-362.09,19.414-482.793-1.074
		c-189.668-33.398-449.375-137.93-650.898-262.949c-50.645-31.23-159.492-104.511-242.461-162.715
		c-225.234-157.324-311.445-193.965-453.691-193.965c-104.531,0-214.453,33.398-510.801,153.027
		c-459.082,185.351-580.859,224.14-835.176,262.929c-177.813,26.934-563.613,26.934-781.289,0
		c-103.457-12.93-183.203-17.246-237.09-11.855c-280.195,23.711-558.223,155.195-722.012,340.547
		c-326.542,369.624-441.835,435.361-759.745,433.208c-299.59-1.074-436.445-59.272-729.57-310.356
		c-173.496-148.711-260.801-206.914-373.945-246.797c-82.969-29.082-105.605-32.324-211.211-31.23
		c-284.512,2.148-598.086,147.637-1069.023,496.782c-163.809,120.698-242.48,164.883-368.555,206.909
		c-178.887,60.347-385.801,56.04-581.934-11.855c-50.645-18.315-199.375-85.132-329.766-150.869
		c-351.299-174.58-456.914-203.682-612.09-167.041c-342.3,147.822-302.129-317.91-789.482,71.304
		c-131.475,91.602-214.414,179.458-316.63,217.275C8023.413,2076.909,7743.134,2111.743,7611.669,2078.335z"/>
</g>
</svg>
